<svg xmlns="http://www.w3.org/2000/svg" xmlns:xlink="http://www.w3.org/1999/xlink" viewBox="0 0 1920 2220.2"><defs><style>.cls-1,.cls-3{fill:none;}.cls-2{fill:#fce6f0;}.cls-3{stroke:#fccadd;stroke-width:0.72px;}.cls-4{opacity:0.5;fill:url(#_10_lpi_10_);}</style><pattern id="_10_lpi_10_" data-name="10 lpi 10 %" width="72" height="72" patternTransform="translate(157.96 425.58) rotate(-45)" patternUnits="userSpaceOnUse" viewBox="0 0 72 72"><rect class="cls-1" width="72" height="72"/><polygon class="cls-2" points="71.97 143.99 0.05 143.99 0.14 71.99 72.05 71.99 71.97 143.99"/><polygon class="cls-2" points="-0.03 143.99 -71.95 143.99 -71.86 71.99 0.05 71.99 -0.03 143.99"/><line class="cls-3" x1="71.75" y1="68.4" x2="144.25" y2="68.4"/><line class="cls-3" x1="71.75" y1="54" x2="144.25" y2="54"/><line class="cls-3" x1="71.75" y1="39.6" x2="144.25" y2="39.6"/><line class="cls-3" x1="71.75" y1="25.2" x2="144.25" y2="25.2"/><line class="cls-3" x1="71.75" y1="10.8" x2="144.25" y2="10.8"/><line class="cls-3" x1="71.75" y1="61.2" x2="144.25" y2="61.2"/><line class="cls-3" x1="71.75" y1="46.8" x2="144.25" y2="46.8"/><line class="cls-3" x1="71.75" y1="32.4" x2="144.25" y2="32.4"/><line class="cls-3" x1="71.75" y1="18" x2="144.25" y2="18"/><line class="cls-3" x1="71.75" y1="3.6" x2="144.25" y2="3.6"/><polygon class="cls-2" points="71.97 71.99 0.05 71.99 0.14 -0.01 72.05 -0.01 71.97 71.99"/><line class="cls-3" x1="-0.25" y1="68.4" x2="72.25" y2="68.4"/><line class="cls-3" x1="-0.25" y1="54" x2="72.25" y2="54"/><line class="cls-3" x1="-0.25" y1="39.6" x2="72.25" y2="39.6"/><line class="cls-3" x1="-0.25" y1="25.2" x2="72.25" y2="25.2"/><line class="cls-3" x1="-0.25" y1="10.8" x2="72.25" y2="10.8"/><line class="cls-3" x1="-0.25" y1="61.2" x2="72.25" y2="61.2"/><line class="cls-3" x1="-0.25" y1="46.8" x2="72.25" y2="46.8"/><line class="cls-3" x1="-0.25" y1="32.4" x2="72.25" y2="32.4"/><line class="cls-3" x1="-0.25" y1="18" x2="72.25" y2="18"/><line class="cls-3" x1="-0.25" y1="3.6" x2="72.25" y2="3.6"/><polygon class="cls-2" points="-0.03 71.99 -71.95 71.99 -71.86 -0.01 0.05 -0.01 -0.03 71.99"/><line class="cls-3" x1="-72.25" y1="68.4" x2="0.25" y2="68.4"/><line class="cls-3" x1="-72.25" y1="54" x2="0.25" y2="54"/><line class="cls-3" x1="-72.25" y1="39.6" x2="0.25" y2="39.6"/><line class="cls-3" x1="-72.25" y1="25.2" x2="0.25" y2="25.2"/><line class="cls-3" x1="-72.25" y1="10.8" x2="0.25" y2="10.8"/><line class="cls-3" x1="-72.25" y1="61.2" x2="0.25" y2="61.2"/><line class="cls-3" x1="-72.25" y1="46.8" x2="0.25" y2="46.8"/><line class="cls-3" x1="-72.25" y1="32.4" x2="0.25" y2="32.4"/><line class="cls-3" x1="-72.25" y1="18" x2="0.25" y2="18"/><line class="cls-3" x1="-72.25" y1="3.6" x2="0.25" y2="3.6"/></pattern></defs><g id="Layer_2" data-name="Layer 2"><g id="Design"><rect class="cls-4" width="1920" height="2220.2"/></g></g></svg>